<svg width="158" height="25" viewBox="0 0 158 25" fill="none" xmlns="http://www.w3.org/2000/svg">
<path d="M4.58008 23.1455C4.58008 22.6214 4.69401 22.0745 4.92188 21.5049C5.14974 20.9124 5.35482 20.4111 5.53711 20.001C5.69661 19.682 5.94727 19.1921 6.28906 18.5312C6.63086 17.8477 7.01823 17.0843 7.45117 16.2412C7.88411 15.3981 8.33984 14.5094 8.81836 13.5752C9.31966 12.641 9.78678 11.7523 10.2197 10.9092C10.6527 10.0661 11.04 9.31413 11.3818 8.65332C11.7464 7.96973 12.0085 7.46842 12.168 7.14941C12.1908 7.12663 12.2363 7.04688 12.3047 6.91016C12.3958 6.77344 12.487 6.63672 12.5781 6.5C12.6921 6.36328 12.7946 6.23796 12.8857 6.12402C12.9769 5.9873 13.0339 5.89616 13.0566 5.85059C13.0794 5.80501 13.068 5.75944 13.0225 5.71387C12.9769 5.66829 12.9541 5.62272 12.9541 5.57715C11.9743 5.69108 10.9489 5.83919 9.87793 6.02148C8.82975 6.20378 7.78158 6.42025 6.7334 6.6709C5.70801 6.89876 4.7168 7.1722 3.75977 7.49121C2.80273 7.78743 1.93685 8.12923 1.16211 8.5166C0.911458 8.5166 0.683594 8.47103 0.478516 8.37988C0.273438 8.28874 0.170898 8.10645 0.170898 7.83301V7.73047C0.170898 7.70768 0.182292 7.6735 0.205078 7.62793C0.250651 7.514 0.31901 7.3431 0.410156 7.11523C0.524089 6.86458 0.603841 6.72786 0.649414 6.70508L3.75977 5.37207L24.5752 0.0742188C24.8258 0.71224 24.8031 1.22493 24.5068 1.6123C24.2334 1.97689 23.7891 2.28451 23.1738 2.53516C22.5586 2.76302 21.8408 2.9681 21.0205 3.15039C20.223 3.3099 19.4141 3.51497 18.5938 3.76562C17.7962 3.99349 17.0557 4.3125 16.3721 4.72266C15.6885 5.11003 15.1758 5.63411 14.834 6.29492C13.3529 9.23438 11.8262 12.1624 10.2539 15.0791C8.70443 17.9958 7.28027 20.9694 5.98145 24C5.95866 24 5.91309 24 5.84473 24C5.79915 24.0228 5.76497 24.0342 5.74219 24.0342C5.44596 24.0342 5.17253 23.9658 4.92188 23.8291C4.69401 23.6924 4.58008 23.4645 4.58008 23.1455Z" fill="black" fill-opacity="0.8"/>
<path d="M17.1924 21.7783C17.1924 21.4593 17.2266 21.1859 17.2949 20.958C17.3633 20.7074 17.4886 20.3883 17.6709 20.001C17.8304 19.7731 18.1152 19.3402 18.5254 18.7021C18.9583 18.0641 19.4027 17.3919 19.8584 16.6855C20.3369 15.9792 20.7812 15.3184 21.1914 14.7031C21.6243 14.0651 21.9206 13.6208 22.0801 13.3701C22.2852 13.0739 22.4447 12.9144 22.5586 12.8916C22.6725 12.8688 22.889 12.8574 23.208 12.8574C23.4131 12.8574 23.6296 12.8688 23.8574 12.8916C24.1081 12.9144 24.2676 13.0739 24.3359 13.3701C24.0169 14.1449 23.584 14.8854 23.0371 15.5918C22.513 16.2754 21.9889 16.959 21.4648 17.6426C20.9635 18.3262 20.5192 19.0326 20.1318 19.7617C19.7445 20.4681 19.5508 21.2314 19.5508 22.0518C19.6419 22.0518 19.7786 22.0632 19.9609 22.0859C20.166 22.1087 20.3825 22.1315 20.6104 22.1543C20.8382 22.1771 21.0433 22.1999 21.2256 22.2227C21.4307 22.2454 21.5788 22.2454 21.6699 22.2227C21.8066 22.1999 22.0345 22.1543 22.3535 22.0859C22.6953 21.9948 23.0485 21.9036 23.4131 21.8125C23.8005 21.7214 24.165 21.6302 24.5068 21.5391C24.8486 21.4479 25.0879 21.3796 25.2246 21.334C25.2246 21.3796 25.2246 21.4593 25.2246 21.5732C25.2474 21.6644 25.2588 21.7327 25.2588 21.7783C25.2588 22.234 25.0423 22.61 24.6094 22.9062C24.1992 23.2025 23.7093 23.4417 23.1396 23.624C22.5928 23.7835 22.0231 23.8975 21.4307 23.9658C20.861 24.0114 20.4167 24.0342 20.0977 24.0342C19.7559 24.0342 19.4027 24 19.0381 23.9316C18.6963 23.8405 18.3887 23.7038 18.1152 23.5215C17.8418 23.3392 17.6139 23.1113 17.4316 22.8379C17.2721 22.5417 17.1924 22.1885 17.1924 21.7783ZM27.1387 1.74902C27.4349 1.74902 27.7083 1.76042 27.959 1.7832C28.2096 1.80599 28.4261 1.86296 28.6084 1.9541C28.7907 2.04525 28.9388 2.18197 29.0527 2.36426C29.1667 2.54655 29.2236 2.7972 29.2236 3.11621C29.2236 3.25293 29.2236 3.40104 29.2236 3.56055C29.2236 3.72005 29.2008 3.87956 29.1553 4.03906C29.1325 4.17578 29.0755 4.30111 28.9844 4.41504C28.8932 4.50618 28.7451 4.55176 28.54 4.55176C28.221 4.55176 27.959 4.43783 27.7539 4.20996C27.5716 3.9821 27.4349 3.72005 27.3438 3.42383C27.2526 3.10482 27.1956 2.78581 27.1729 2.4668C27.1501 2.14779 27.1387 1.90853 27.1387 1.74902Z" fill="black" fill-opacity="0.8"/>
<path d="M33.7695 11.627C33.2454 11.6953 32.6416 12.0257 31.958 12.6182C31.2744 13.1878 30.6136 13.8942 29.9756 14.7373C29.3604 15.5576 28.8363 16.4577 28.4033 17.4375C27.9704 18.3945 27.7539 19.2832 27.7539 20.1035C27.7539 20.7643 27.9248 21.2314 28.2666 21.5049C28.6084 21.7555 29.0983 21.8809 29.7363 21.8809C30.4199 21.8809 31.0807 21.8011 31.7188 21.6416C32.3796 21.4593 33.029 21.277 33.667 21.0947C34.3278 20.8896 34.9772 20.7074 35.6152 20.5479C36.276 20.3656 36.9482 20.2744 37.6318 20.2744C37.6318 20.5934 37.5863 20.8669 37.4951 21.0947C37.404 21.2998 37.2673 21.5277 37.085 21.7783C35.9001 22.348 34.681 22.8721 33.4277 23.3506C32.1745 23.8063 30.8643 24.0342 29.4971 24.0342C29.0869 24.0342 28.654 23.9658 28.1982 23.8291C27.7425 23.6696 27.321 23.4531 26.9336 23.1797C26.5462 22.9062 26.2158 22.5758 25.9424 22.1885C25.6917 21.8011 25.5664 21.3682 25.5664 20.8896C25.5664 19.8643 25.7145 18.873 26.0107 17.916C26.307 16.9362 26.7171 16.0133 27.2412 15.1475C27.7653 14.2816 28.3919 13.484 29.1211 12.7549C29.873 12.0257 30.682 11.3877 31.5479 10.8408V10.8066C31.8896 10.6016 32.277 10.4079 32.71 10.2256C33.1657 10.0205 33.5872 9.90658 33.9746 9.88379C34.362 9.83822 34.681 9.92936 34.9316 10.1572C35.2051 10.3623 35.3418 10.7611 35.3418 11.3535C35.3418 11.627 35.319 11.9915 35.2734 12.4473C35.2279 12.8802 35.1025 13.1878 34.8975 13.3701C34.7152 13.484 34.4759 13.5866 34.1797 13.6777C34.043 13.7233 33.9062 13.7575 33.7695 13.7803V11.627Z" fill="black" fill-opacity="0.8"/>
<path d="M59.0967 23.1455C59.0967 22.6214 59.2106 22.0745 59.4385 21.5049C59.6663 20.9124 59.8714 20.4111 60.0537 20.001C60.2132 19.682 60.4639 19.1921 60.8057 18.5312C61.1475 17.8477 61.5348 17.0843 61.9678 16.2412C62.4007 15.3981 62.8564 14.5094 63.335 13.5752C63.8363 12.641 64.3034 11.7523 64.7363 10.9092C65.1693 10.0661 65.5566 9.31413 65.8984 8.65332C66.263 7.96973 66.5251 7.46842 66.6846 7.14941C66.7074 7.12663 66.7529 7.04688 66.8213 6.91016C66.9124 6.77344 67.0036 6.63672 67.0947 6.5C67.2087 6.36328 67.3112 6.23796 67.4023 6.12402C67.4935 5.9873 67.5505 5.89616 67.5732 5.85059C67.596 5.80501 67.5846 5.75944 67.5391 5.71387C67.4935 5.66829 67.4707 5.62272 67.4707 5.57715C66.4909 5.69108 65.4655 5.83919 64.3945 6.02148C63.3464 6.20378 62.2982 6.42025 61.25 6.6709C60.2246 6.89876 59.2334 7.1722 58.2764 7.49121C57.3193 7.78743 56.4535 8.12923 55.6787 8.5166C55.4281 8.5166 55.2002 8.47103 54.9951 8.37988C54.79 8.28874 54.6875 8.10645 54.6875 7.83301V7.73047C54.6875 7.70768 54.6989 7.6735 54.7217 7.62793C54.7673 7.514 54.8356 7.3431 54.9268 7.11523C55.0407 6.86458 55.1204 6.72786 55.166 6.70508L58.2764 5.37207L79.0918 0.0742188C79.3424 0.71224 79.3197 1.22493 79.0234 1.6123C78.75 1.97689 78.3057 2.28451 77.6904 2.53516C77.0752 2.76302 76.3574 2.9681 75.5371 3.15039C74.7396 3.3099 73.9307 3.51497 73.1104 3.76562C72.3128 3.99349 71.5723 4.3125 70.8887 4.72266C70.2051 5.11003 69.6924 5.63411 69.3506 6.29492C67.8695 9.23438 66.3428 12.1624 64.7705 15.0791C63.221 17.9958 61.7969 20.9694 60.498 24C60.4753 24 60.4297 24 60.3613 24C60.3158 24.0228 60.2816 24.0342 60.2588 24.0342C59.9626 24.0342 59.6891 23.9658 59.4385 23.8291C59.2106 23.6924 59.0967 23.4645 59.0967 23.1455Z" fill="black" fill-opacity="0.8"/>
<path d="M72.1533 21.7783C72.3584 20.4795 72.7458 19.2832 73.3154 18.1895C73.8851 17.0957 74.5345 16.1501 75.2637 15.3525C76.0156 14.5322 76.8245 13.86 77.6904 13.3359C78.5563 12.8118 79.3994 12.4814 80.2197 12.3447C81.04 12.1852 81.792 12.2194 82.4756 12.4473C83.182 12.6751 83.7516 13.1309 84.1846 13.8145C84.1846 14.3385 84.0592 14.8398 83.8086 15.3184C83.5807 15.7969 83.3187 16.2754 83.0225 16.7539C82.749 17.2324 82.487 17.7223 82.2363 18.2236C82.0085 18.7249 81.8945 19.2604 81.8945 19.8301C81.8945 20.4225 82.0199 20.901 82.2705 21.2656C82.5439 21.6074 83.0111 21.7783 83.6719 21.7783C84.2188 21.7783 84.7428 21.6986 85.2441 21.5391C85.7682 21.3796 86.2923 21.2998 86.8164 21.2998C86.9076 21.2998 87.0557 21.3112 87.2607 21.334C87.4886 21.334 87.6367 21.334 87.7051 21.334C87.4316 21.7214 87.0785 22.0518 86.6455 22.3252C86.2126 22.5986 85.7568 22.8379 85.2783 23.043C84.7998 23.2253 84.2985 23.362 83.7744 23.4531C83.2731 23.5443 82.806 23.5898 82.373 23.5898C81.9629 23.5898 81.5983 23.4987 81.2793 23.3164C80.9603 23.1341 80.6868 22.8949 80.459 22.5986C80.2311 22.3024 80.0488 21.972 79.9121 21.6074C79.7982 21.2201 79.7412 20.8441 79.7412 20.4795C79.3994 20.8669 79.0234 21.277 78.6133 21.71C78.2259 22.1201 77.8044 22.4961 77.3486 22.8379C76.9157 23.1797 76.4372 23.4645 75.9131 23.6924C75.4118 23.9202 74.8877 24.0342 74.3408 24.0342C73.7484 24.0342 73.2357 23.8177 72.8027 23.3848C72.3698 22.929 72.1533 22.3936 72.1533 21.7783ZM74.4092 20.7188C74.4092 20.901 74.4092 21.1061 74.4092 21.334C74.432 21.5618 74.5801 21.71 74.8535 21.7783C75.4232 21.6416 76.0726 21.3454 76.8018 20.8896C77.5309 20.4111 78.2145 19.8643 78.8525 19.249C79.4906 18.611 80.026 17.9388 80.459 17.2324C80.8919 16.5033 81.1084 15.8083 81.1084 15.1475C81.1084 15.1019 81.097 15.0335 81.0742 14.9424C81.0742 14.8285 81.0742 14.7487 81.0742 14.7031C80.2995 14.7031 79.5133 14.8626 78.7158 15.1816C77.9183 15.5007 77.2005 15.945 76.5625 16.5146C75.9245 17.0615 75.4004 17.6995 74.9902 18.4287C74.6029 19.1579 74.4092 19.9212 74.4092 20.7188Z" fill="black" fill-opacity="0.8"/>
<path d="M94.9512 11.627C94.4271 11.6953 93.8232 12.0257 93.1396 12.6182C92.4561 13.1878 91.7952 13.8942 91.1572 14.7373C90.542 15.5576 90.0179 16.4577 89.585 17.4375C89.152 18.3945 88.9355 19.2832 88.9355 20.1035C88.9355 20.7643 89.1064 21.2314 89.4482 21.5049C89.79 21.7555 90.2799 21.8809 90.918 21.8809C91.6016 21.8809 92.2624 21.8011 92.9004 21.6416C93.5612 21.4593 94.2106 21.277 94.8486 21.0947C95.5094 20.8896 96.1589 20.7074 96.7969 20.5479C97.4577 20.3656 98.1299 20.2744 98.8135 20.2744C98.8135 20.5934 98.7679 20.8669 98.6768 21.0947C98.5856 21.2998 98.4489 21.5277 98.2666 21.7783C97.0817 22.348 95.8626 22.8721 94.6094 23.3506C93.3561 23.8063 92.0459 24.0342 90.6787 24.0342C90.2686 24.0342 89.8356 23.9658 89.3799 23.8291C88.9242 23.6696 88.5026 23.4531 88.1152 23.1797C87.7279 22.9062 87.3975 22.5758 87.124 22.1885C86.8734 21.8011 86.748 21.3682 86.748 20.8896C86.748 19.8643 86.8962 18.873 87.1924 17.916C87.4886 16.9362 87.8988 16.0133 88.4229 15.1475C88.9469 14.2816 89.5736 13.484 90.3027 12.7549C91.0547 12.0257 91.8636 11.3877 92.7295 10.8408V10.8066C93.0713 10.6016 93.4587 10.4079 93.8916 10.2256C94.3473 10.0205 94.7689 9.90658 95.1562 9.88379C95.5436 9.83822 95.8626 9.92936 96.1133 10.1572C96.3867 10.3623 96.5234 10.7611 96.5234 11.3535C96.5234 11.627 96.5007 11.9915 96.4551 12.4473C96.4095 12.8802 96.2842 13.1878 96.0791 13.3701C95.8968 13.484 95.6576 13.5866 95.3613 13.6777C95.2246 13.7233 95.0879 13.7575 94.9512 13.7803V11.627Z" fill="black" fill-opacity="0.8"/>
<path d="M120.278 23.1455C120.278 22.6214 120.392 22.0745 120.62 21.5049C120.848 20.9124 121.053 20.4111 121.235 20.001C121.395 19.682 121.646 19.1921 121.987 18.5312C122.329 17.8477 122.716 17.0843 123.149 16.2412C123.582 15.3981 124.038 14.5094 124.517 13.5752C125.018 12.641 125.485 11.7523 125.918 10.9092C126.351 10.0661 126.738 9.31413 127.08 8.65332C127.445 7.96973 127.707 7.46842 127.866 7.14941C127.889 7.12663 127.935 7.04688 128.003 6.91016C128.094 6.77344 128.185 6.63672 128.276 6.5C128.39 6.36328 128.493 6.23796 128.584 6.12402C128.675 5.9873 128.732 5.89616 128.755 5.85059C128.778 5.80501 128.766 5.75944 128.721 5.71387C128.675 5.66829 128.652 5.62272 128.652 5.57715C127.673 5.69108 126.647 5.83919 125.576 6.02148C124.528 6.20378 123.48 6.42025 122.432 6.6709C121.406 6.89876 120.415 7.1722 119.458 7.49121C118.501 7.78743 117.635 8.12923 116.86 8.5166C116.61 8.5166 116.382 8.47103 116.177 8.37988C115.972 8.28874 115.869 8.10645 115.869 7.83301V7.73047C115.869 7.70768 115.881 7.6735 115.903 7.62793C115.949 7.514 116.017 7.3431 116.108 7.11523C116.222 6.86458 116.302 6.72786 116.348 6.70508L119.458 5.37207L140.273 0.0742188C140.524 0.71224 140.501 1.22493 140.205 1.6123C139.932 1.97689 139.487 2.28451 138.872 2.53516C138.257 2.76302 137.539 2.9681 136.719 3.15039C135.921 3.3099 135.112 3.51497 134.292 3.76562C133.494 3.99349 132.754 4.3125 132.07 4.72266C131.387 5.11003 130.874 5.63411 130.532 6.29492C129.051 9.23438 127.524 12.1624 125.952 15.0791C124.403 17.9958 122.979 20.9694 121.68 24C121.657 24 121.611 24 121.543 24C121.497 24.0228 121.463 24.0342 121.44 24.0342C121.144 24.0342 120.871 23.9658 120.62 23.8291C120.392 23.6924 120.278 23.4645 120.278 23.1455Z" fill="black" fill-opacity="0.8"/>
<path d="M133.335 21.1289C133.335 21.0378 133.335 20.8555 133.335 20.582C133.358 20.2858 133.369 20.0921 133.369 20.001C134.098 18.3376 135.033 16.7995 136.172 15.3867C137.311 13.974 138.599 12.7207 140.034 11.627C140.08 11.627 140.148 11.6156 140.239 11.5928C140.353 11.5472 140.433 11.5244 140.479 11.5244C141.094 11.5244 141.595 11.6611 141.982 11.9346C142.393 12.1852 142.712 12.527 142.939 12.96C143.19 13.3701 143.361 13.8372 143.452 14.3613C143.543 14.8626 143.589 15.3525 143.589 15.8311C143.589 16.7197 143.384 17.654 142.974 18.6338C142.563 19.5908 142.005 20.4795 141.299 21.2998C140.615 22.0973 139.829 22.7581 138.94 23.2822C138.052 23.7835 137.129 24.0342 136.172 24.0342C135.215 24.0342 134.497 23.7835 134.019 23.2822C133.563 22.7581 133.335 22.0404 133.335 21.1289ZM136.001 20.7188C136.001 20.9694 136.104 21.1403 136.309 21.2314C136.514 21.3226 136.719 21.3682 136.924 21.3682C137.493 21.3682 138.04 21.2201 138.564 20.9238C139.111 20.6048 139.59 20.2174 140 19.7617C140.433 19.2832 140.775 18.7591 141.025 18.1895C141.276 17.6198 141.401 17.0729 141.401 16.5488C141.401 16.2982 141.379 16.0247 141.333 15.7285C141.31 15.4095 141.242 15.1361 141.128 14.9082C141.014 14.6576 140.832 14.4639 140.581 14.3271C140.353 14.1904 140.023 14.1676 139.59 14.2588C139.271 14.3271 138.906 14.6234 138.496 15.1475C138.086 15.6715 137.687 16.2868 137.3 16.9932C136.935 17.6768 136.628 18.3717 136.377 19.0781C136.126 19.7617 136.001 20.3086 136.001 20.7188Z" fill="black" fill-opacity="0.8"/>
<path d="M144.99 22.2227C144.603 21.3568 144.432 20.5137 144.478 19.6934C144.523 18.8503 144.705 18.0641 145.024 17.335C145.366 16.583 145.799 15.9108 146.323 15.3184C146.87 14.7031 147.451 14.179 148.066 13.7461C148.682 13.2904 149.297 12.9486 149.912 12.7207C150.55 12.4928 151.108 12.4017 151.587 12.4473C152.065 12.4701 152.441 12.641 152.715 12.96C152.988 13.279 153.079 13.7689 152.988 14.4297C152.988 15.3184 152.703 16.0931 152.134 16.7539C151.587 17.4147 150.972 18.0072 150.288 18.5312C149.627 19.0553 149.012 19.5339 148.442 19.9668C147.896 20.377 147.622 20.7643 147.622 21.1289C147.622 21.334 147.736 21.4935 147.964 21.6074C148.215 21.7214 148.499 21.8125 148.818 21.8809C149.137 21.9264 149.456 21.9606 149.775 21.9834C150.094 22.0062 150.322 22.029 150.459 22.0518C152.601 21.596 154.207 21.3226 155.278 21.2314C156.349 21.1175 157.021 21.1289 157.295 21.2656C157.568 21.3796 157.511 21.5732 157.124 21.8467C156.759 22.0973 156.19 22.3708 155.415 22.667C154.64 22.9404 153.74 23.1911 152.715 23.4189C151.689 23.6468 150.675 23.7835 149.673 23.8291C148.67 23.8519 147.736 23.7493 146.87 23.5215C146.027 23.2936 145.4 22.8607 144.99 22.2227ZM150.972 14.4297C150.516 14.4297 150.083 14.555 149.673 14.8057C149.263 15.0563 148.887 15.3753 148.545 15.7627C148.226 16.1273 147.952 16.5374 147.725 16.9932C147.497 17.4261 147.326 17.8363 147.212 18.2236C147.257 18.2464 147.292 18.2578 147.314 18.2578H147.417C147.736 18.2578 148.101 18.1211 148.511 17.8477C148.921 17.5742 149.308 17.2438 149.673 16.8564C150.037 16.4463 150.345 16.0247 150.596 15.5918C150.846 15.1589 150.972 14.7715 150.972 14.4297Z" fill="black" fill-opacity="0.8"/>
</svg>
