<svg width="16" height="19" viewBox="0 0 16 19" fill="none" xmlns="http://www.w3.org/2000/svg">
<path d="M4.8069 4.59999C5.4469 4.59999 5.7669 4.91999 5.7669 5.55999C5.7669 6.07199 5.4469 6.39199 4.8069 6.51999C3.93224 6.69065 3.28157 7.30932 2.8549 8.37599C2.44957 9.42132 2.2469 10.6373 2.2469 12.024C2.2469 13.3893 2.74824 14.5733 3.7509 15.576C4.75357 16.5787 6.01224 17.08 7.5269 17.08C9.04157 17.08 10.4602 16.4187 11.7829 15.096C13.1056 13.752 13.7669 12.28 13.7669 10.68C13.7669 8.80265 13.4789 6.98932 12.9029 5.23999C12.6042 4.34399 12.1669 3.60799 11.5909 3.03199C11.0149 2.45599 10.2789 2.16799 9.3829 2.16799C8.4869 2.16799 7.76157 2.32799 7.2069 2.64799C6.65224 2.96799 6.2789 3.12799 6.0869 3.12799C5.4469 3.12799 5.1269 2.80799 5.1269 2.16799C5.1269 1.82665 5.4469 1.46399 6.0869 1.07999C6.42824 0.866652 6.95091 0.674652 7.65491 0.503986C8.35891 0.333319 9.00957 0.247986 9.6069 0.247986C10.6949 0.247986 11.6549 0.567986 12.4869 1.20798C13.2976 1.84799 13.9269 2.70132 14.3749 3.76799C15.2496 5.83732 15.6869 8.14132 15.6869 10.68C15.6869 12.8133 14.8336 14.7333 13.1269 16.44C11.4202 18.1467 9.55357 19 7.5269 19C5.50024 19 3.79357 18.3067 2.4069 16.92C1.02024 15.5333 0.326904 13.8267 0.326904 11.8C0.326904 9.75199 0.721571 8.10932 1.5109 6.87199C2.30024 5.61332 3.2389 4.87732 4.3269 4.66399C4.54024 4.62132 4.70024 4.59999 4.8069 4.59999Z" fill="#1B6BE2"/>
</svg>
