<svg width="14" height="19" viewBox="0 0 14 19" fill="none" xmlns="http://www.w3.org/2000/svg">
<path d="M2.19253 19C1.55253 19 1.23253 18.68 1.23253 18.04C1.23253 17.6987 1.28586 17.4107 1.39253 17.176C2.22453 15.32 3.71786 12.6747 5.87253 9.24C5.74453 9.02667 4.94453 7.864 3.47253 5.752C1.97919 3.66133 1.12586 2.44533 0.912529 2.104C0.699196 1.76267 0.592529 1.464 0.592529 1.208C0.592529 0.568001 0.912528 0.248001 1.55253 0.248001C1.82986 0.248001 2.2032 0.600001 2.67253 1.304C2.82186 1.51733 3.54719 2.552 4.84853 4.408C6.14986 6.24267 6.86453 7.26667 6.99253 7.48L10.1925 2.36C10.6405 1.592 11.0672 1.208 11.4725 1.208C12.1125 1.208 12.4325 1.51733 12.4325 2.136C12.4325 2.34933 12.2619 2.712 11.9205 3.224L8.20853 9.208C8.35786 9.42134 9.1472 10.552 10.5765 12.6C12.0272 14.648 12.8592 15.8427 13.0725 16.184C13.2859 16.5253 13.3925 16.824 13.3925 17.08C13.3925 17.72 13.0725 18.04 12.4325 18.04C12.1765 18.04 11.8352 17.72 11.4085 17.08C11.2592 16.8667 10.5339 15.8533 9.23253 14.04C7.93119 12.2053 7.21653 11.1813 7.08853 10.968C4.84853 14.616 3.53653 16.9733 3.15253 18.04C2.91786 18.68 2.59786 19 2.19253 19Z" fill="black" fill-opacity="0.8"/>
</svg>
