<svg width="953" height="700" viewBox="0 0 953 700" fill="none" xmlns="http://www.w3.org/2000/svg">
<path fill-rule="evenodd" clip-rule="evenodd" d="M395.746 177.06C372.087 162.82 341.363 170.457 327.124 194.117C312.884 217.777 320.521 248.5 344.181 262.739C346.477 264.121 350.68 267.797 356.794 276.644C361.512 283.472 365.434 290.354 370.217 298.747L370.217 298.747L370.218 298.748C371.889 301.679 373.664 304.795 375.616 308.157C385.068 324.442 398.026 339.698 407.066 350.341L407.068 350.343C407.085 350.363 407.102 350.384 407.12 350.404C403.733 354.782 400.039 359.917 396.828 365.294C395.802 366.391 393.68 368.674 391.533 371.396C389.131 374.441 385.936 378.96 383.22 384.861C383.236 384.826 383.244 384.808 383.243 384.807C383.242 384.807 383.23 384.828 383.205 384.87C383.064 385.114 382.511 386.067 381.315 387.698C379.825 389.729 378.007 391.904 376.215 393.854C363.773 407.39 355.997 423.142 351.564 432.124L351.562 432.127C351.172 432.917 350.808 433.654 350.469 434.333C338.132 459.038 348.157 489.067 372.862 501.404C397.567 513.742 427.596 503.716 439.933 479.011C445.946 466.972 447.77 463.776 449.838 461.527C455.767 455.076 464.788 444.345 471.458 431.894C472.364 430.911 473.556 429.589 474.709 428.212C476.766 425.754 479.642 422.039 482.331 417.204C486.738 421.93 491.523 428.298 498.133 437.262C510.137 453.54 515.72 461.829 518.669 471.123C527.02 497.445 555.127 512.012 581.448 503.661C607.769 495.31 622.337 467.203 613.986 440.882C605.595 414.433 590.458 393.943 579.885 379.63L579.817 379.538C579.41 378.988 579.01 378.446 578.618 377.914C578.284 377.462 577.941 376.995 577.588 376.516C571.009 367.58 561.158 354.2 549.55 342.973C546.967 340.474 544.363 338.199 541.813 336.131C543.617 333.704 545.434 331.26 547.261 328.804L547.262 328.802C561.204 310.057 575.716 290.546 589.03 271.489C604.845 248.852 599.315 217.68 576.678 201.865C554.041 186.051 522.869 191.581 507.055 214.218C494.37 232.375 481.709 249.381 468.571 267.028L468.571 267.029C468.499 267.126 468.427 267.223 468.355 267.32C466.016 264.196 463.972 261.178 462.103 257.958C461.041 256.128 459.847 254.029 458.542 251.733L458.538 251.727C453.397 242.684 446.515 230.582 439.065 219.798C429.467 205.908 415.615 189.017 395.746 177.06Z" fill="#1B6BE2" fill-opacity="0.06"/>
<path fill-rule="evenodd" clip-rule="evenodd" d="M76.7314 559.649C53.0717 545.41 22.3483 553.047 8.10886 576.706C-6.13058 600.366 1.50611 631.089 25.1659 645.329C27.4619 646.711 31.6654 650.386 37.7786 659.234C42.4967 666.062 46.4189 672.944 51.2025 681.337L51.2055 681.342C52.8755 684.272 54.6504 687.386 56.6008 690.746C66.0533 707.032 79.0112 722.287 88.0511 732.93L88.0512 732.93C88.0691 732.952 88.0871 732.973 88.105 732.994C84.7182 737.372 81.024 742.507 77.8136 747.883C76.7872 748.98 74.6651 751.264 72.5179 753.986C70.1167 757.03 66.9215 761.55 64.2048 767.451C64.2212 767.415 64.2294 767.397 64.2285 767.397C64.2275 767.396 64.2153 767.417 64.1907 767.46C64.0491 767.704 63.4964 768.657 62.3001 770.288C60.8106 772.319 58.9922 774.494 57.2 776.443C44.7577 789.979 36.9823 805.732 32.5488 814.713L32.5429 814.725C32.1547 815.512 31.7921 816.246 31.4544 816.923C19.1168 841.628 29.1425 871.656 53.8474 883.994C78.5523 896.331 108.581 886.306 120.919 861.601C126.931 849.562 128.755 846.366 130.823 844.116C136.753 837.665 145.773 826.934 152.443 814.484C153.35 813.5 154.541 812.179 155.694 810.801C157.751 808.344 160.627 804.629 163.317 799.794C167.723 804.52 172.508 810.887 179.118 819.852C191.122 836.13 196.705 844.418 199.654 853.713C208.005 880.034 236.112 894.602 262.433 886.251C288.755 877.9 303.322 849.793 294.971 823.471C286.58 797.023 271.443 776.532 260.87 762.22C260.44 761.638 260.017 761.065 259.603 760.504C259.269 760.051 258.926 759.585 258.573 759.106C251.994 750.169 242.143 736.79 230.535 725.562C227.952 723.064 225.348 720.789 222.798 718.721C224.602 716.294 226.419 713.851 228.246 711.394L228.246 711.393L228.246 711.393C242.189 692.648 256.701 673.137 270.016 654.078C285.831 631.441 280.3 600.27 257.663 584.455C235.026 568.64 203.855 574.171 188.04 596.808C175.355 614.965 162.694 631.971 149.557 649.618C149.484 649.715 149.412 649.812 149.34 649.909C147.002 646.785 144.957 643.768 143.088 640.547C142.025 638.716 140.83 636.615 139.523 634.316C134.382 625.273 127.501 613.171 120.05 602.388C110.452 588.498 96.5998 571.607 76.7314 559.649Z" fill="#1B6BE2" fill-opacity="0.06"/>
<path fill-rule="evenodd" clip-rule="evenodd" d="M504.195 -64.9035C501.48 -63.7652 498.626 -62.8518 495.651 -62.1907C486.74 -60.2105 482.002 -57.2911 478.472 -54.1254C474.319 -50.4004 469.436 -44.1321 463.276 -32.1466C461.379 -28.4552 459.43 -25.1127 457.884 -22.5179C457 -21.0335 456.383 -20.0123 455.844 -19.1203C455.192 -18.0428 454.655 -17.1539 453.899 -15.8649C452.951 -14.2505 452.36 -13.1566 452.003 -12.464C451.995 -11.9219 452.003 -11.2061 452.045 -10.3027C452.214 -6.719 452.798 -2.41639 453.655 2.62923C453.838 3.70716 455.142 7.94419 462.934 13.0333C470.816 18.1818 480.879 21 488.805 21C492.017 21 494.871 20.9461 497.516 20.7794C498.243 20.7336 498.92 20.6812 499.549 20.6235C499.698 20.2053 499.839 19.7955 499.969 19.3978C499.72 18.854 499.432 18.2375 499.099 17.5434C498.956 17.2463 498.794 16.9106 498.614 16.5401C497.092 13.3928 494.356 7.7336 492.196 1.85164C489.598 -5.22459 486.805 -15.147 486.805 -27C486.805 -42.1544 493.547 -55.7342 504.195 -64.9035ZM517.452 -73.117C530.934 -84.7558 537.748 -103.242 533.614 -121.847C527.624 -148.803 500.915 -165.8 473.958 -159.809C449.739 -154.427 429.09 -144.161 411.709 -128.574C394.952 -113.547 383.4 -95.4964 374.333 -77.8535C373.436 -76.1082 372.725 -74.9347 371.46 -72.8496C370.559 -71.3648 369.378 -69.4177 367.65 -66.4729C364.498 -61.1007 359.606 -52.4222 356.27 -41.938C351.901 -28.2073 351.726 -14.76 352.156 -5.60818C352.613 4.11607 354.012 13.1657 355.066 19.3707C361.175 55.3476 384.294 81.1106 408.251 96.7578C432.117 112.346 461.13 121 488.805 121C496.761 121 509.524 120.811 522.782 118.219C535.562 115.72 554.582 109.934 570.16 94.3553C581.636 82.8798 588.524 67.7168 592.099 58.5955C595.95 48.7672 600.001 35.3795 600.723 22.7413C601.99 0.580559 593.257 -17.4545 589.725 -24.7467C589.557 -25.0954 589.4 -25.4195 589.256 -25.7183C587.822 -28.7077 587.074 -30.2747 586.625 -31.275C584.456 -56.8881 562.979 -77 536.805 -77C529.943 -77 523.405 -75.6179 517.452 -73.117ZM586.044 -32.6838C586.045 -32.6836 586.052 -32.6647 586.064 -32.6278C586.05 -32.6656 586.044 -32.6841 586.044 -32.6838ZM501.029 15.5395C501.036 15.4958 501.037 15.4939 501.03 15.536C501.03 15.5371 501.029 15.5383 501.029 15.5395ZM452.064 -13.6744C452.065 -13.6742 452.063 -13.6543 452.057 -13.6157C452.061 -13.6554 452.064 -13.6747 452.064 -13.6744Z" fill="#1B6BE2" fill-opacity="0.06"/>
<path fill-rule="evenodd" clip-rule="evenodd" d="M35.2094 279.951C33.7919 284.346 32.8003 287.853 32.3929 289.672C26.9618 313.918 24.7366 339.946 22.9719 360.589C22.8834 361.625 22.796 362.646 22.7095 363.654C20.4204 390.298 23.4497 414.912 35.329 441.298C40.7993 453.448 49.8985 471.817 65.8422 487.01C79.5096 500.035 95.1411 503.645 104.489 504.826C109.219 505.424 113.409 505.53 116.166 505.556C117.513 505.569 118.797 505.562 119.697 505.557L119.801 505.557C120.834 505.552 121.39 505.55 121.862 505.555C123.457 505.571 125.45 505.677 127.784 505.801C145.735 506.755 183.859 508.782 216.463 479.382C242.126 456.24 254.789 425.931 261.603 401.288C261.818 400.512 262.12 399.468 262.484 398.213C264.119 392.568 266.994 382.638 268.741 373.428C270.768 362.74 273.498 343.193 266.44 323.289C261.336 308.894 252.508 295.752 248.193 289.327C247.987 289.02 247.791 288.729 247.607 288.453C242.955 281.509 236.532 273.787 233.016 269.561C232.419 268.843 231.906 268.226 231.499 267.731C231.314 267.413 230.954 266.786 230.371 265.722C230.285 265.565 230.186 265.384 230.077 265.183C229.415 263.969 228.354 262.025 227.268 260.154C225.91 257.817 224.086 254.841 221.772 251.645C209.992 235.375 195.02 226.476 182.813 221.205C173.945 217.377 163.697 214.454 157.923 212.807C156.775 212.48 155.804 212.203 155.056 211.979C144.064 208.694 126.543 204.142 107.59 205.143C86.7758 206.242 62.0692 214.336 44.1106 237.787C34.561 250.257 31.7896 265.787 35.2094 279.951ZM130.89 309.099C130.392 310.587 129.997 311.834 129.729 312.707C129.712 312.761 129.697 312.813 129.681 312.863C125.963 330.066 124.273 349.74 122.36 372.013L122.342 372.213C121.31 384.235 122.547 391.435 126.514 400.245C127.452 402.329 128.313 404.127 129.1 405.679C130.259 405.71 131.368 405.742 132.412 405.774C132.785 405.785 133.148 405.796 133.502 405.807C135.941 405.881 137.935 405.942 139.89 405.976C144.37 406.053 146.705 405.932 148.163 405.75C148.476 405.711 148.707 405.673 148.869 405.643C149.014 405.532 149.222 405.362 149.495 405.117C155.195 399.977 160.878 390.341 165.221 374.635C165.731 372.79 166.284 370.869 166.77 369.182L166.895 368.747C167.439 366.858 167.931 365.144 168.402 363.433C169.354 359.975 170.042 357.171 170.492 354.795C170.562 354.426 170.623 354.083 170.677 353.765C170.544 353.531 170.4 353.282 170.245 353.017C168.743 350.452 166.933 347.702 164.526 344.109C162.915 341.704 161.724 340.281 159.522 337.65C157.982 335.809 155.947 333.377 152.928 329.604C147.883 323.301 144.431 316.988 142.787 313.983C142.74 313.898 142.695 313.815 142.652 313.735C142.405 313.285 142.187 312.889 141.995 312.539C140.925 312.134 139.464 311.637 137.398 311.006C135.94 310.56 134.391 310.109 132.516 309.568C132.294 309.504 132.066 309.439 131.832 309.371C131.527 309.283 131.212 309.192 130.89 309.099ZM148.61 405.825C148.61 405.825 148.625 405.815 148.655 405.798C148.625 405.818 148.61 405.826 148.61 405.825ZM149.146 405.584C149.168 405.577 149.18 405.574 149.18 405.575C149.18 405.575 149.169 405.578 149.146 405.584ZM129.417 313.753C129.416 313.755 129.43 313.705 129.462 313.594C129.434 313.695 129.418 313.75 129.417 313.753Z" fill="#1B6BE2" fill-opacity="0.06"/>
<path fill-rule="evenodd" clip-rule="evenodd" d="M398.209 632.951C396.792 637.346 395.8 640.853 395.393 642.672C389.962 666.918 387.737 692.946 385.972 713.589C385.883 714.625 385.796 715.646 385.709 716.654C383.42 743.298 386.45 767.912 398.329 794.298C403.799 806.448 412.899 824.817 428.842 840.01C442.51 853.035 458.141 856.645 467.489 857.826C472.219 858.424 476.409 858.53 479.166 858.556C480.513 858.569 481.797 858.562 482.697 858.557L482.801 858.557C483.834 858.552 484.39 858.55 484.862 858.555C486.457 858.571 488.45 858.677 490.784 858.801C508.735 859.755 546.859 861.782 579.463 832.382C605.126 809.24 617.789 778.931 624.603 754.288C624.818 753.512 625.12 752.468 625.484 751.213C627.119 745.568 629.994 735.638 631.741 726.428C633.768 715.74 636.498 696.193 629.44 676.289C624.336 661.894 615.508 648.752 611.193 642.327C610.987 642.02 610.791 641.729 610.607 641.453C605.955 634.509 599.532 626.787 596.016 622.561C595.419 621.843 594.906 621.226 594.499 620.731C594.314 620.413 593.954 619.786 593.371 618.722C593.285 618.565 593.186 618.384 593.077 618.183C592.415 616.969 591.354 615.025 590.268 613.154C588.91 610.817 587.086 607.841 584.772 604.645C572.992 588.375 558.02 579.476 545.813 574.205C536.945 570.377 526.697 567.454 520.923 565.807C519.775 565.48 518.804 565.203 518.056 564.979C507.064 561.694 489.543 557.142 470.59 558.143C449.776 559.242 425.069 567.336 407.111 590.787C397.561 603.257 394.79 618.787 398.209 632.951ZM493.89 662.099C493.392 663.587 492.997 664.834 492.729 665.707C492.712 665.761 492.697 665.813 492.681 665.863C488.963 683.066 487.273 702.74 485.36 725.013L485.342 725.213C484.31 737.235 485.547 744.435 489.514 753.245C490.452 755.329 491.313 757.127 492.1 758.679C493.259 758.71 494.368 758.742 495.412 758.774C495.785 758.785 496.148 758.796 496.502 758.807C498.941 758.881 500.935 758.942 502.89 758.976C507.37 759.053 509.705 758.932 511.163 758.75C511.476 758.711 511.707 758.673 511.869 758.643C512.014 758.532 512.222 758.362 512.495 758.117C518.195 752.977 523.878 743.341 528.221 727.635C528.731 725.79 529.284 723.869 529.77 722.182L529.895 721.747C530.439 719.858 530.931 718.144 531.402 716.433C532.354 712.975 533.042 710.171 533.492 707.795C533.562 707.426 533.623 707.083 533.677 706.765C533.544 706.531 533.4 706.282 533.245 706.017C531.743 703.452 529.933 700.702 527.526 697.109C525.915 694.704 524.724 693.281 522.522 690.65C520.982 688.809 518.947 686.377 515.928 682.604C510.883 676.301 507.431 669.988 505.787 666.983C505.74 666.898 505.695 666.815 505.652 666.735C505.405 666.285 505.187 665.889 504.995 665.539C503.925 665.134 502.464 664.637 500.398 664.006C498.94 663.56 497.391 663.109 495.516 662.568C495.294 662.504 495.066 662.439 494.832 662.371C494.527 662.283 494.212 662.192 493.89 662.099ZM511.61 758.825C511.61 758.825 511.625 758.815 511.655 758.798C511.625 758.818 511.61 758.826 511.61 758.825ZM512.146 758.584C512.168 758.577 512.18 758.574 512.18 758.575C512.18 758.575 512.169 758.578 512.146 758.584ZM492.417 666.753C492.416 666.755 492.43 666.705 492.462 666.594C492.434 666.695 492.418 666.75 492.417 666.753Z" fill="#1B6BE2" fill-opacity="0.06"/>
<path fill-rule="evenodd" clip-rule="evenodd" d="M716.209 279.951C714.792 284.346 713.8 287.853 713.393 289.672C707.962 313.918 705.737 339.946 703.972 360.589C703.883 361.625 703.796 362.646 703.709 363.654C701.42 390.298 704.45 414.912 716.329 441.298C721.799 453.448 730.899 471.817 746.842 487.01C760.51 500.035 776.141 503.645 785.489 504.826C790.219 505.424 794.409 505.53 797.166 505.556C798.513 505.569 799.797 505.562 800.697 505.557L800.801 505.557C801.834 505.552 802.39 505.55 802.862 505.555C804.457 505.571 806.45 505.677 808.784 505.801C826.735 506.755 864.859 508.782 897.463 479.382C923.126 456.24 935.789 425.931 942.603 401.288C942.818 400.512 943.12 399.468 943.484 398.213C945.119 392.568 947.994 382.638 949.741 373.428C951.768 362.74 954.498 343.193 947.44 323.289C942.336 308.894 933.508 295.752 929.193 289.327C928.987 289.02 928.791 288.729 928.607 288.453C923.955 281.509 917.532 273.787 914.016 269.561C913.419 268.843 912.906 268.226 912.499 267.731C912.314 267.413 911.954 266.786 911.371 265.722C911.285 265.565 911.186 265.384 911.077 265.183C910.415 263.969 909.354 262.025 908.268 260.154C906.91 257.817 905.086 254.841 902.772 251.645C890.992 235.375 876.02 226.476 863.813 221.205C854.945 217.377 844.697 214.454 838.923 212.807C837.775 212.48 836.804 212.203 836.056 211.979C825.064 208.694 807.543 204.142 788.59 205.143C767.776 206.242 743.069 214.336 725.111 237.787C715.561 250.257 712.79 265.787 716.209 279.951ZM811.89 309.099C811.392 310.587 810.997 311.834 810.729 312.707C810.712 312.761 810.697 312.813 810.681 312.863C806.963 330.066 805.273 349.74 803.36 372.013L803.342 372.213C802.31 384.235 803.547 391.435 807.514 400.245C808.452 402.329 809.313 404.127 810.1 405.679C811.259 405.71 812.368 405.742 813.412 405.774C813.785 405.785 814.148 405.796 814.502 405.807C816.941 405.881 818.935 405.942 820.89 405.976C825.37 406.053 827.705 405.932 829.163 405.75C829.476 405.711 829.707 405.673 829.869 405.643C830.014 405.532 830.222 405.362 830.495 405.117C836.195 399.977 841.878 390.341 846.221 374.635C846.731 372.79 847.284 370.869 847.77 369.182L847.895 368.747C848.439 366.858 848.931 365.144 849.402 363.433C850.354 359.975 851.042 357.171 851.492 354.795C851.562 354.426 851.623 354.083 851.677 353.765C851.544 353.531 851.4 353.282 851.245 353.017C849.743 350.452 847.933 347.702 845.526 344.109C843.915 341.704 842.724 340.281 840.522 337.65C838.982 335.809 836.947 333.377 833.928 329.604C828.883 323.301 825.431 316.988 823.787 313.983C823.74 313.898 823.695 313.815 823.652 313.735C823.405 313.285 823.187 312.889 822.995 312.539C821.925 312.134 820.464 311.637 818.398 311.006C816.94 310.56 815.391 310.109 813.516 309.568C813.294 309.504 813.066 309.439 812.832 309.371C812.527 309.283 812.212 309.192 811.89 309.099ZM829.61 405.825C829.61 405.825 829.625 405.815 829.655 405.798C829.625 405.818 829.61 405.826 829.61 405.825ZM830.146 405.584C830.168 405.577 830.18 405.574 830.18 405.575C830.18 405.575 830.169 405.578 830.146 405.584ZM810.417 313.753C810.416 313.755 810.43 313.705 810.462 313.594C810.434 313.695 810.418 313.75 810.417 313.753Z" fill="#1B6BE2" fill-opacity="0.06"/>
<path fill-rule="evenodd" clip-rule="evenodd" d="M716.209 632.951C714.792 637.346 713.8 640.853 713.393 642.672C707.962 666.918 705.737 692.946 703.972 713.589C703.883 714.625 703.796 715.646 703.709 716.654C701.42 743.298 704.45 767.912 716.329 794.298C721.799 806.448 730.899 824.817 746.842 840.01C760.51 853.035 776.141 856.645 785.489 857.826C790.219 858.424 794.409 858.53 797.166 858.556C798.513 858.569 799.797 858.562 800.697 858.557L800.801 858.557C801.834 858.552 802.39 858.55 802.862 858.555C804.457 858.571 806.45 858.677 808.784 858.801C826.735 859.755 864.859 861.782 897.463 832.382C923.126 809.24 935.789 778.931 942.603 754.288C942.818 753.512 943.12 752.468 943.484 751.213C945.119 745.568 947.994 735.638 949.741 726.428C951.768 715.74 954.498 696.193 947.44 676.289C942.336 661.894 933.508 648.752 929.193 642.327C928.987 642.02 928.791 641.729 928.607 641.453C923.955 634.509 917.532 626.787 914.016 622.561C913.419 621.843 912.906 621.226 912.499 620.731C912.314 620.413 911.954 619.786 911.371 618.722C911.285 618.565 911.186 618.384 911.077 618.183C910.415 616.969 909.354 615.025 908.268 613.154C906.91 610.817 905.086 607.841 902.772 604.645C890.992 588.375 876.02 579.476 863.813 574.205C854.945 570.377 844.697 567.454 838.923 565.807C837.775 565.48 836.804 565.203 836.056 564.979C825.064 561.694 807.543 557.142 788.59 558.143C767.776 559.242 743.069 567.336 725.111 590.787C715.561 603.257 712.79 618.787 716.209 632.951ZM811.89 662.099C811.392 663.587 810.997 664.834 810.729 665.707C810.712 665.761 810.697 665.813 810.681 665.863C806.963 683.066 805.273 702.74 803.36 725.013L803.342 725.213C802.31 737.235 803.547 744.435 807.514 753.245C808.452 755.329 809.313 757.127 810.1 758.679C811.259 758.71 812.368 758.742 813.412 758.774C813.785 758.785 814.148 758.796 814.502 758.807C816.941 758.881 818.935 758.942 820.89 758.976C825.37 759.053 827.705 758.932 829.163 758.75C829.476 758.711 829.707 758.673 829.869 758.643C830.014 758.532 830.222 758.362 830.495 758.117C836.195 752.977 841.878 743.341 846.221 727.635C846.731 725.79 847.284 723.869 847.77 722.182L847.895 721.747C848.439 719.858 848.931 718.144 849.402 716.433C850.354 712.975 851.042 710.171 851.492 707.795C851.562 707.426 851.623 707.083 851.677 706.765C851.544 706.531 851.4 706.282 851.245 706.017C849.743 703.452 847.933 700.702 845.526 697.109C843.915 694.704 842.724 693.281 840.522 690.65C838.982 688.809 836.947 686.377 833.928 682.604C828.883 676.301 825.431 669.988 823.787 666.983C823.74 666.898 823.695 666.815 823.652 666.735C823.405 666.285 823.187 665.889 822.995 665.539C821.925 665.134 820.464 664.637 818.398 664.006C816.94 663.56 815.391 663.109 813.516 662.568C813.294 662.504 813.066 662.439 812.832 662.371C812.527 662.283 812.212 662.192 811.89 662.099ZM829.61 758.825C829.61 758.825 829.625 758.815 829.655 758.798C829.625 758.818 829.61 758.826 829.61 758.825ZM830.146 758.584C830.168 758.577 830.18 758.574 830.18 758.575C830.18 758.575 830.169 758.578 830.146 758.584ZM810.417 666.753C810.416 666.755 810.43 666.705 810.462 666.594C810.434 666.695 810.418 666.75 810.417 666.753Z" fill="#1B6BE2" fill-opacity="0.06"/>
<path fill-rule="evenodd" clip-rule="evenodd" d="M288.854 -132.064C299.864 -157.388 288.26 -186.843 262.936 -197.854C237.612 -208.864 208.157 -197.26 197.146 -171.936C185.088 -144.202 168.673 -117.595 150.091 -89.5905C149.036 -90.3103 147.948 -91.0556 146.828 -91.8231L146.819 -91.8291C127.049 -105.373 97.2313 -125.8 63.3692 -134.446C36.6133 -141.277 9.38546 -125.125 2.55416 -98.3692C-4.27714 -71.6133 11.875 -44.3854 38.6309 -37.5541C53.8065 -33.6795 69.5541 -23.4479 92.3969 -7.89442C87.4151 -0.60347 82.4674 7.03436 77.7922 14.9823C72.9376 23.2352 68.6191 32.4273 65.5304 39.0017C64.9351 40.2688 64.3855 41.4387 63.8865 42.4858C60.1347 50.3597 57.818 54.5564 55.7909 57.3207C51.6827 62.9227 47.3835 70.425 44.1041 77.2693C42.3658 80.8973 40.4158 85.3695 38.8004 90.2071C37.4842 94.1487 35 102.292 35 112C35 139.614 57.3858 162 85 162C109.721 162 130.251 144.06 134.282 120.488L134.287 120.479C134.823 119.359 135.461 118.167 136.053 117.15C136.333 116.67 136.548 116.323 136.675 116.124C144.617 105.216 150.264 93.6818 154.162 85.5009C155.119 83.4935 155.976 81.678 156.761 80.0171C158.629 76.0621 160.084 72.9832 161.474 70.274C165.25 73.9293 168.853 77.1319 171.931 79.8241C173.282 81.0056 174.472 82.0389 175.556 82.9798C178.128 85.2125 180.101 86.925 182.197 88.8622C184.311 90.8144 185.861 92.3886 187.029 93.7151C187.933 120.535 209.96 142 237 142C243.582 142 271.904 140.767 285.941 112.783C292.069 100.565 291.944 89.0941 291.083 82.2886C290.227 75.5121 288.262 70.1791 287.015 67.1682C284.736 61.6667 281.793 56.8806 280.755 55.1924L280.615 54.9656C280.008 53.9746 279.649 53.3838 279.456 53.0698C279.403 52.9819 279.362 52.9156 279.332 52.8684C270.628 35.7776 259.297 23.9478 250.056 15.4103C244.572 10.344 241.192 7.46808 238.47 5.15247C235.268 2.42789 232.977 0.479004 229.244 -3.34946C227.617 -5.0182 225.57 -7.63824 221.925 -13.0642C221.516 -13.6722 221.057 -14.3642 220.553 -15.1249C243.846 -49.5564 270.08 -88.8856 288.854 -132.064ZM195.927 108.175C195.962 108.24 195.982 108.274 195.983 108.275C195.984 108.276 195.978 108.265 195.964 108.241C195.955 108.225 195.943 108.203 195.927 108.175Z" fill="#1B6BE2" fill-opacity="0.06"/>
<path fill-rule="evenodd" clip-rule="evenodd" d="M947.854 -132.064C958.864 -157.388 947.261 -186.843 921.936 -197.854C896.612 -208.864 867.157 -197.26 856.147 -171.936C844.088 -144.202 827.673 -117.595 809.091 -89.5905C808.036 -90.3103 806.949 -91.0556 805.828 -91.8231L805.82 -91.8291C786.049 -105.373 756.231 -125.8 722.369 -134.446C695.613 -141.277 668.385 -125.125 661.554 -98.3692C654.723 -71.6133 670.875 -44.3854 697.631 -37.5541C712.807 -33.6795 728.554 -23.4479 751.397 -7.89442C746.415 -0.60347 741.467 7.03436 736.792 14.9823C731.938 23.2352 727.619 32.4273 724.53 39.0017C723.935 40.2688 723.386 41.4387 722.887 42.4858C719.135 50.3597 716.818 54.5564 714.791 57.3207C710.683 62.9227 706.384 70.425 703.104 77.2693C701.366 80.8973 699.416 85.3695 697.8 90.2071C696.484 94.1487 694 102.292 694 112C694 139.614 716.386 162 744 162C768.721 162 789.252 144.06 793.282 120.488L793.287 120.479C793.823 119.359 794.461 118.167 795.053 117.15C795.333 116.67 795.548 116.323 795.675 116.124C803.617 105.216 809.264 93.6818 813.162 85.5009C814.119 83.4935 814.976 81.678 815.761 80.0171C817.629 76.0621 819.084 72.9832 820.474 70.274C824.25 73.9293 827.853 77.1319 830.931 79.8241C832.282 81.0056 833.472 82.0389 834.556 82.9798C837.128 85.2125 839.101 86.925 841.197 88.8622C843.311 90.8144 844.861 92.3886 846.029 93.7151C846.933 120.535 868.96 142 896 142C902.582 142 930.904 140.767 944.941 112.783C951.069 100.565 950.944 89.0941 950.083 82.2886C949.227 75.5121 947.262 70.1791 946.015 67.1682C943.736 61.6667 940.793 56.8806 939.755 55.1924L939.615 54.9656C939.008 53.9747 938.649 53.3839 938.456 53.0698C938.403 52.9819 938.362 52.9156 938.332 52.8684C929.628 35.7776 918.298 23.9478 909.056 15.4103C903.572 10.344 900.192 7.46808 897.47 5.15247C894.268 2.42789 891.977 0.479004 888.245 -3.34946C886.617 -5.0182 884.571 -7.63824 880.925 -13.0642C880.516 -13.6722 880.057 -14.3642 879.553 -15.1249C902.846 -49.5564 929.08 -88.8856 947.854 -132.064ZM854.927 108.175C854.962 108.24 854.982 108.274 854.983 108.275C854.984 108.276 854.978 108.264 854.964 108.24C854.955 108.224 854.943 108.203 854.927 108.175Z" fill="#1B6BE2" fill-opacity="0.06"/>
</svg>
